<?xml version="1.0" encoding="UTF-8" standalone="no"?>
<!DOCTYPE svg PUBLIC "-//W3C//DTD SVG 1.1//EN" "http://www.w3.org/Graphics/SVG/1.1/DTD/svg11.dtd">
<svg width="100%" height="100%" viewBox="0 0 246 246" version="1.1" xmlns="http://www.w3.org/2000/svg" xmlns:xlink="http://www.w3.org/1999/xlink" xml:space="preserve" xmlns:serif="http://www.serif.com/" style="fill-rule:evenodd;clip-rule:evenodd;stroke-linejoin:round;stroke-miterlimit:2;">
    <g transform="matrix(1,0,0,1,-5388.95,-382.79)">
        <g transform="matrix(1.5607,0,0,2.42481,3029.6,-92.3185)">
            <g id="Trockner">
                <g id="Umrandung" transform="matrix(1,0,0,1,-4.78926,1.86051)">
                    <g transform="matrix(0.662527,0,0,0.426428,-2058.86,32.7043)">
                        <path d="M5618.08,378.751C5626.05,378.899 5633.2,385.708 5633.34,394.009C5633.86,462.671 5633.86,531.339 5633.34,600.001C5633.2,607.937 5626.4,615.105 5618.08,615.259C5549.42,615.67 5480.76,615.669 5412.09,615.259C5404.15,615.112 5397,608.303 5396.83,600.001C5396.49,531.338 5396.49,462.672 5396.83,394.009C5396.99,386.055 5403.87,378.903 5412.09,378.751C5480.76,378.319 5549.42,378.318 5618.08,378.751ZM5412.3,386.809C5408.47,386.833 5405.01,390.141 5404.9,394.02C5403.51,462.632 5404.55,531.274 5404.89,599.899C5404.97,603.702 5408.26,607.079 5412.1,607.199C5480.72,608.473 5549.36,607.611 5617.98,607.2C5621.8,607.13 5625.22,603.764 5625.28,599.899C5625.8,531.305 5625.8,462.705 5625.28,394.11C5625.22,390.307 5621.96,386.883 5617.98,386.809C5549.42,386.378 5480.86,386.809 5412.3,386.809Z"/>
                    </g>
                    <g transform="matrix(0.626005,0,0,0.402921,-1913.87,18.7061)">
                        <path d="M5605.64,438.643C5641.98,438.819 5677.54,455.864 5700.38,484.229C5728.99,519.77 5735.56,571.638 5715.3,613.663C5695.55,654.629 5651.63,682.844 5605.24,682.844C5554.15,682.844 5504.9,648.161 5488.86,597.752C5475.08,554.42 5487.65,503.632 5521.82,471.62C5543.97,450.869 5574.04,438.884 5604.46,438.645C5604.85,438.643 5605.25,438.642 5605.64,438.643ZM5604.88,447.173C5564.11,447.37 5524.04,471.014 5504.58,508.147C5485.44,544.668 5488.11,591.559 5512.24,625.907C5537.15,661.352 5583.31,680.614 5626.74,672.281C5676.75,662.683 5717.94,616.436 5718.8,562.577C5719.5,518.778 5693.03,475.793 5651.96,457.209C5637.56,450.691 5621.76,447.298 5605.98,447.174C5605.61,447.173 5605.25,447.172 5604.88,447.173Z"/>
                    </g>
                </g>
                <g transform="matrix(0.640738,0,0,0.45969,-1938.11,18.0023)">
                    <path d="M5466.5,440.485C5470.08,440.997 5471.58,445.375 5473.41,449.18C5478.55,459.882 5482.14,471.783 5478.66,483.018C5473.9,498.364 5457.33,509.712 5459.42,526.808C5460.34,534.295 5463.85,541.617 5469.08,547.363C5469.68,548.008 5469.67,548.013 5469.9,548.501C5471.44,551.794 5466.11,556.088 5462.18,551.595C5453.18,541.285 5448.17,527.445 5452.26,514.547C5456.68,500.626 5470.97,490.011 5471.63,475.489C5472.1,465.29 5467.97,454.778 5462.47,446.102C5462.47,446.102 5461.41,443.935 5462.45,442.329C5463.25,441.09 5464.81,440.404 5466.5,440.485Z"/>
                </g>
                <g transform="matrix(0.640738,0,0,0.45969,-1911.76,18.0023)">
                    <path d="M5466.45,440.481C5469.86,440.935 5471.35,444.935 5473.13,448.458C5478.53,459.179 5482.43,471.188 5479.01,482.627C5474.35,498.225 5457.33,509.711 5459.42,526.808C5460.35,534.348 5463.82,541.743 5469.2,547.489C5469.2,547.489 5471.15,550.542 5469.09,552.507C5467.27,554.235 5464.11,553.8 5462.18,551.592C5453.32,541.428 5448.22,527.782 5452.14,514.971C5456.5,500.745 5471.21,490.003 5471.87,475.521C5472.34,465.295 5468.1,454.813 5462.49,446.133C5462.49,446.133 5461.42,443.971 5462.43,442.363C5463.21,441.117 5464.77,440.416 5466.45,440.481Z"/>
                </g>
                <g transform="matrix(0.640738,0,0,0.45969,-1885.25,18.0023)">
                    <path d="M5466.47,440.483C5468.58,440.773 5469.82,442.498 5470.97,444.498C5477.44,455.802 5482.27,468.636 5479.27,481.051C5475.26,497.655 5457.21,509.545 5459.44,526.961C5460.4,534.408 5463.86,541.646 5469.08,547.363C5469.22,547.507 5469.22,547.506 5469.22,547.506C5469.22,547.506 5470.51,549.299 5470.11,550.803C5469.36,553.648 5464.91,554.714 5462.18,551.594C5453.38,541.504 5448.35,528.057 5452.01,515.41C5456.12,501.161 5470.9,490.172 5471.7,475.666C5472.27,465.37 5467.99,454.781 5462.48,446.114C5462.48,446.114 5460.89,440.243 5466.47,440.483Z"/>
                </g>
            </g>
        </g>
    </g>
</svg>
