<?xml version="1.0" encoding="UTF-8" standalone="no"?>
<!DOCTYPE svg PUBLIC "-//W3C//DTD SVG 1.1//EN" "http://www.w3.org/Graphics/SVG/1.1/DTD/svg11.dtd">
<svg width="100%" height="100%" viewBox="0 0 246 246" version="1.1" xmlns="http://www.w3.org/2000/svg" xmlns:xlink="http://www.w3.org/1999/xlink" xml:space="preserve" xmlns:serif="http://www.serif.com/" style="fill-rule:evenodd;clip-rule:evenodd;stroke-linejoin:round;stroke-miterlimit:2;">
    <g transform="matrix(1,0,0,1,-5740.66,-382.79)">
        <g transform="matrix(1.5607,0,0,2.42481,3029.6,-92.3185)">
            <g id="Waschmaschine">
                <g id="Umrandung" transform="matrix(1,0,0,1,220.564,1.86051)">
                    <g transform="matrix(0.662527,0,0,0.426428,-2058.86,32.7043)">
                        <path d="M5618.08,378.751C5626.05,378.898 5633.2,385.71 5633.34,394.009C5633.86,462.671 5633.86,531.339 5633.34,600.001C5633.2,607.943 5626.4,615.105 5618.08,615.259C5549.42,615.67 5480.76,615.669 5412.09,615.259C5404.14,615.111 5397,608.259 5396.83,600.001C5396.49,531.338 5396.49,462.672 5396.83,394.009C5397,386.012 5403.87,378.903 5412.09,378.751C5480.76,378.319 5549.42,378.318 5618.08,378.751ZM5412.3,386.809C5408.44,386.833 5404.97,390.08 5404.89,394.11C5404.55,462.706 5404.55,531.304 5404.89,599.899C5404.97,603.738 5408.33,607.129 5412.19,607.2C5480.79,607.61 5549.39,607.611 5617.98,607.2C5621.8,607.13 5625.22,603.764 5625.28,599.899C5625.8,531.305 5625.8,462.705 5625.28,394.11C5625.22,390.304 5621.96,386.883 5617.98,386.809C5549.42,386.378 5480.86,386.809 5412.3,386.809Z"/>
                    </g>
                    <g transform="matrix(0.626005,0,0,0.402921,-1913.87,18.7061)">
                        <path d="M5605.64,438.643C5650.04,438.858 5693.09,464.721 5713.81,504.843C5734.05,544.039 5731.01,594.128 5705.23,630.811C5678.46,668.899 5628.82,689.613 5582.15,680.657C5528.34,670.332 5484.1,621.291 5483.16,562.713C5482.41,515.61 5510.95,469.216 5555.35,449.285C5570.86,442.322 5587.85,438.725 5604.85,438.643C5605.11,438.643 5605.38,438.643 5605.64,438.643ZM5604.88,447.173C5563.64,447.372 5523.37,471.466 5504.1,509.063C5485.68,545.016 5488.1,590.892 5511.66,625.066C5536.35,660.896 5582.51,680.478 5626.04,672.412C5676.66,663.031 5718.12,616.477 5718.81,562.211C5719.2,531.323 5706.46,500.629 5684.08,479.019C5663.53,459.183 5635.29,447.59 5606.71,447.181C5606.1,447.174 5605.49,447.172 5604.88,447.173Z"/>
                    </g>
                </g>
                <g transform="matrix(0.640738,0,0,0.412404,-1940.6,36.8084)">
                    <path d="M5793.82,492.204C5812.7,492.411 5828.34,507.717 5845.02,513.555C5857.6,517.956 5871.94,517.335 5883.42,510.833C5892.52,505.688 5900.37,498.136 5910.18,494.882C5923.55,490.447 5938.54,493.616 5951.4,499.559C5960.82,503.915 5969.85,509.839 5980.44,509.875C5980.44,509.875 5983.91,510.557 5984.49,513.128C5985.1,515.875 5982.75,518.334 5978.88,518.177C5962.19,517.501 5948.16,504.716 5932.15,501.919C5923.44,500.4 5914.3,501.31 5906.66,505.514C5897.02,510.811 5888.75,518.758 5878.31,522.228C5863.44,527.174 5846.67,524.626 5832.44,517.057C5819.92,510.399 5808.41,500.748 5794.05,500.54C5783.1,500.382 5773.18,506.272 5763.52,512.232C5757.61,515.856 5751.27,518.991 5744.22,519.022C5744.22,519.022 5740.76,518.45 5740.14,515.8C5739.52,513.134 5741.85,510.822 5745.1,510.665C5754.3,510.142 5761.45,503.293 5769.32,498.918C5776.82,494.749 5785.24,492.171 5793.82,492.204Z"/>
                </g>
            </g>
        </g>
    </g>
</svg>
